<svg data-v-423bf9ae="" xmlns="http://www.w3.org/2000/svg" viewBox="0 0 520 90" class="iconLeft"><!----><!----><!----><g data-v-423bf9ae="" id="b3e5c0f9-2b76-4749-b24a-ddf5a0b05b52" fill="#041F57" transform="matrix(4.60829496383667,0,0,4.60829496383667,104.94227600097656,13.0645170211792)"><path d="M2.98 10.50L2.98 7.03L4.87 7.03C7.38 7.03 8.74 5.70 8.74 3.67C8.74 1.26 6.79 0.42 4.76 0.42L1.02 0.42L1.02 10.50ZM2.98 2.16L4.73 2.16C6.06 2.16 6.73 2.69 6.73 3.71C6.73 4.54 6.24 5.31 4.76 5.31L2.98 5.31ZM11.44 10.50L11.44 7.06C11.44 5.64 12.04 4.75 13.24 4.75C13.68 4.75 13.97 4.87 14.25 5.03L14.59 3.39C14.25 3.12 13.86 3.01 13.30 3.01C12.29 3.01 11.77 3.50 11.31 4.48L11.31 3.22L9.59 3.22L9.59 10.50ZM17.36 2.18L17.36 0.42L15.51 0.42L15.51 2.18ZM17.36 10.50L17.36 3.22L15.51 3.22L15.51 10.50ZM22.85 10.50L25.75 3.22L23.90 3.22L22.02 8.26L20.19 3.22L18.31 3.22L21.21 10.50ZM30.86 9.70C30.90 9.97 30.97 10.32 31.18 10.50L33.04 10.50C32.79 10.23 32.62 9.76 32.62 9.02L32.62 6.02C32.62 3.89 31.46 3.01 29.58 3.01C28.21 3.01 26.81 3.53 26.45 5.21L28.06 5.70C28.22 5.04 28.63 4.51 29.47 4.51C30.38 4.51 30.77 5.04 30.77 5.73L30.77 5.92C30.41 6.09 29.85 6.19 29.08 6.27C27.36 6.47 26.22 7.07 26.22 8.64C26.22 10.02 27.34 10.71 28.67 10.71C29.54 10.71 30.23 10.46 30.86 9.70ZM30.77 8.30C30.49 8.79 29.81 9.31 29.06 9.31C28.45 9.31 28.10 9.02 28.10 8.51C28.07 7.81 28.64 7.60 29.32 7.48C30.03 7.34 30.51 7.21 30.77 7.10ZM35.76 6.86C35.76 5.32 36.40 4.55 37.34 4.55C38.07 4.55 38.60 4.96 38.79 5.91L40.60 5.61C40.21 3.79 38.91 3.01 37.34 3.01C35.42 3.01 33.91 4.26 33.91 6.86C33.91 9.46 35.42 10.71 37.34 10.71C38.91 10.71 40.21 9.94 40.60 8.12L38.78 7.84C38.60 8.78 38.07 9.17 37.34 9.17C36.37 9.17 35.76 8.41 35.76 6.86ZM41.94 13.26C42.21 13.34 42.50 13.44 42.94 13.44C44.23 13.44 44.98 12.57 45.56 11.02L48.44 3.22L46.62 3.22L44.83 8.29L43.02 3.22L41.13 3.22L43.96 10.43L43.82 10.84C43.53 11.56 43.16 11.80 42.62 11.80C42.21 11.80 42.04 11.72 41.80 11.62L41.94 13.26ZM56.92 10.50C60.27 10.50 61.84 8.58 61.84 5.43C61.84 2.18 60.12 0.42 56.77 0.42L53.49 0.42L53.49 10.50ZM55.45 2.20L56.60 2.20C58.42 2.20 59.84 2.76 59.84 5.42C59.84 7.84 58.72 8.74 56.64 8.74L55.45 8.74ZM67.84 3.22L67.84 7.18C67.84 8.48 67.19 9.16 66.33 9.16C65.44 9.16 65.10 8.60 65.10 7.63L65.10 3.22L63.25 3.22L63.25 7.69C63.25 9.42 63.84 10.71 65.86 10.71C66.77 10.71 67.44 10.32 67.97 9.45L67.97 10.50L69.69 10.50L69.69 3.22ZM73.16 10.50L73.16 6.73C73.16 5.50 73.56 4.56 74.56 4.56C75.17 4.56 75.56 4.98 75.56 5.98L75.56 10.50L77.41 10.50L77.41 6.38C77.41 5.29 77.91 4.56 78.79 4.56C79.58 4.56 79.79 5.21 79.79 6.02L79.79 10.50L81.63 10.50L81.63 5.52C81.63 3.89 80.75 3.01 79.35 3.01C78.44 3.01 77.67 3.39 77.21 4.35C76.92 3.50 76.20 3.01 75.14 3.01C74.17 3.01 73.54 3.36 73.04 4.26L73.04 3.22L71.32 3.22L71.32 10.50ZM85.11 13.30L85.11 9.83C85.53 10.47 86.20 10.71 86.87 10.71C88.69 10.71 90.05 9.32 90.05 6.86C90.05 4.40 88.73 3.01 86.91 3.01C86.04 3.01 85.39 3.42 84.97 4.12L84.97 3.22L83.26 3.22L83.26 13.30ZM84.95 6.86C84.95 5.31 85.72 4.55 86.59 4.55C87.50 4.55 88.20 5.31 88.20 6.86C88.20 8.41 87.54 9.17 86.58 9.17C85.62 9.17 84.95 8.41 84.95 6.86Z"></path></g><defs data-v-423bf9ae=""><linearGradient data-v-423bf9ae="" gradientTransform="rotate(25)" id="4ac610da-58c7-4750-9e4d-3329e1116504" x1="0%" y1="0%" x2="100%" y2="0%"><stop data-v-423bf9ae="" offset="0%" style="stop-color: rgb(0, 21, 214); stop-opacity: 1;"></stop><stop data-v-423bf9ae="" offset="100%" style="stop-color: rgb(9, 137, 251); stop-opacity: 1;"></stop></linearGradient></defs><g data-v-423bf9ae="" id="38daf36d-2931-4480-8db2-0be574fffb12" transform="matrix(1.6694800853729248,0,0,1.6694800853729248,-8.26852035522461,-8.52347183227539)" stroke="none" fill="url(#4ac610da-58c7-4750-9e4d-3329e1116504)"><path d="M30.683 7.2a1 1 0 0 0 .753-.548l.686-1.389.685 1.389a1 1 0 0 0 .754.548l1.533.222-1.11 1.078a1 1 0 0 0-.287.885l.262 1.528-1.372-.722a1.007 1.007 0 0 0-.931 0l-1.371.722.261-1.528a1 1 0 0 0-.287-.885l-1.11-1.082zM33.741 56.76a.994.994 0 0 0-.287.885l.261 1.527-1.371-.721a1 1 0 0 0-.931 0l-1.372.721.262-1.527a1 1 0 0 0-.287-.885l-1.111-1.083 1.534-.222a1 1 0 0 0 .754-.548l.685-1.389.686 1.389a1 1 0 0 0 .753.548l1.534.222zM13.585 14.178a1 1 0 0 0 .753-.548l.686-1.389.686 1.39a1 1 0 0 0 .753.547L18 14.4l-1.11 1.082a1 1 0 0 0-.288.885l.262 1.528-1.372-.721a1 1 0 0 0-.93 0l-1.372.721.262-1.528a1 1 0 0 0-.288-.885L12.051 14.4zM47.354 48.291a1 1 0 0 0 .753-.547l.686-1.39.686 1.39a1 1 0 0 0 .753.547l1.534.223-1.11 1.086a1 1 0 0 0-.288.885l.262 1.528-1.371-.721a1 1 0 0 0-.931 0l-1.372.721.262-1.528a1 1 0 0 0-.287-.884l-1.11-1.082zM6.683 31.455a1 1 0 0 0 .753-.548l.686-1.389.685 1.389a1 1 0 0 0 .754.548l1.534.222-1.111 1.083a1 1 0 0 0-.287.885l.262 1.527-1.372-.721a1 1 0 0 0-.931 0l-1.371.721.261-1.527a.994.994 0 0 0-.287-.885l-1.11-1.083zM55.185 30.9l.686-1.39.686 1.39a1 1 0 0 0 .753.547l1.534.223-1.11 1.081a1 1 0 0 0-.288.886l.262 1.528-1.372-.722a1 1 0 0 0-.93 0l-1.372.722.262-1.528a1 1 0 0 0-.288-.885L52.9 31.67l1.534-.223a1 1 0 0 0 .751-.547zM16.715 49.606a1 1 0 0 0-.288.885l.262 1.528-1.372-.719a1.005 1.005 0 0 0-.93 0l-1.372.722.262-1.528a1 1 0 0 0-.288-.885l-1.11-1.082 1.535-.223a1 1 0 0 0 .753-.547l.685-1.39.687 1.39a1 1 0 0 0 .752.547l1.534.223zM47.526 14.532a1 1 0 0 0 .754-.547l.685-1.389.686 1.389a1 1 0 0 0 .753.547l1.534.223-1.11 1.081a1 1 0 0 0-.288.886l.26 1.528-1.371-.722a1 1 0 0 0-.931 0l-1.372.722.262-1.528a1 1 0 0 0-.287-.885l-1.11-1.082zM36 30v-5a4 4 0 0 0-8 0v5h-2v9h12v-9zm-6-5a2 2 0 0 1 4 0v5h-4zm4 12h-4v-2h1v-3h2v3h1z"></path></g><!----></svg>